<?xml version="1.0" encoding="utf-8"?>
<!-- Generator: Adobe Illustrator 25.4.1, SVG Export Plug-In . SVG Version: 6.00 Build 0)  -->
<svg version="1.1" id="logoTest" xmlns="http://www.w3.org/2000/svg" xmlns:xlink="http://www.w3.org/1999/xlink" x="0px" y="0px"
	 viewBox="0 0 500 500" style="enable-background:new 0 0 500 500;" xml:space="preserve">
<style type="text/css">
	.st0{fill:none;}
</style>
<path d="M47.4,211h8.9v61.5h29.5v7.5H47.4V211z"/>
<path d="M138.8,254.9c0,18.3-12.7,26.3-24.7,26.3c-13.4,0-23.8-9.8-23.8-25.5c0-16.6,10.9-26.3,24.6-26.3
	C129.2,229.4,138.8,239.7,138.8,254.9z M99.5,255.4c0,10.8,6.2,19.1,15,19.1c8.6,0,15.1-8.1,15.1-19.3c0-8.4-4.2-19-14.8-19
	S99.5,246,99.5,255.4L99.5,255.4z"/>
<path d="M192.9,230.5c-0.2,3.6-0.4,7.6-0.4,13.6v28.8c0,11.4-2.2,18.3-7.1,22.6c-4.8,4.5-11.8,5.9-18,5.9c-5.9,0-12.5-1.4-16.5-4.1
	l2.3-6.9c4.4,2.6,9.4,4,14.5,3.9c9.2,0,16-4.8,16-17.3v-5.5h-0.2c-2.8,4.6-8.1,8.3-15.8,8.3c-12.3,0-21.1-10.5-21.1-24.2
	c0-16.8,11-26.3,22.3-26.3c8.6,0,13.3,4.5,15.5,8.6h0.2l0.4-7.5L192.9,230.5z M183.6,250.1c0.1-1.4-0.1-2.8-0.5-4.1
	c-1.6-5.2-6-9.5-12.6-9.5c-8.6,0-14.7,7.3-14.7,18.7c0,9.7,4.9,17.8,14.6,17.8c5.7,0,10.8-3.8,12.5-9.2c0.5-1.6,0.7-3.2,0.7-4.8
	V250.1z"/>
<path d="M252.3,254.9c0,18.3-12.7,26.3-24.7,26.3c-13.4,0-23.8-9.8-23.8-25.5c0-16.6,10.9-26.3,24.6-26.3
	C242.7,229.4,252.3,239.7,252.3,254.9z M213,255.4c0,10.8,6.2,19.1,15.1,19.1c8.6,0,15.1-8.1,15.1-19.3c0-8.4-4.2-19-14.9-19
	S213,246,213,255.4L213,255.4z"/>
<path d="M312.8,280.1l-0.7-6.2h-0.3c-3.6,4.8-9.2,7.5-15.2,7.4c-10,0-15.2-7.1-15.2-14.2c0-12,10.6-18.5,29.8-18.4v-1
	c0-4.1-1.1-11.5-11.3-11.5c-4.6,0-9,1.3-12.9,3.7l-2-5.9c4.9-3,10.5-4.5,16.3-4.4c15.2,0,18.9,10.4,18.9,20.3v18.5
	c-0.1,4,0.2,8,0.8,11.9L312.8,280.1z M311.5,254.8c-9.8-0.2-21,1.5-21,11.2c0,5.8,3.9,8.6,8.5,8.6c5.4,0.1,10.2-3.2,12-8.3
	c0.3-0.9,0.5-1.9,0.5-2.9L311.5,254.8z"/>
<path d="M334.8,246c0-5.8-0.1-10.9-0.4-15.5h7.9l0.3,9.7h0.4c2.3-6.7,7.7-10.9,13.7-10.9c0.9,0,1.7,0.1,2.6,0.3v8.5
	c-1-0.2-2-0.3-3.1-0.3c-6.4,0-10.9,4.8-12.1,11.6c-0.3,1.4-0.4,2.8-0.4,4.2v26.4h-8.9V246z"/>
<path d="M372.2,256.9c0.2,12.2,8,17.2,17,17.2c4.7,0.2,9.4-0.7,13.8-2.6l1.5,6.4c-3.2,1.4-8.6,3.1-16.5,3.1c-15.3,0-24.4-10-24.4-25
	s8.8-26.7,23.2-26.7c16.2,0,20.5,14.2,20.5,23.4c0,1.4-0.1,2.8-0.3,4.2L372.2,256.9z M398.7,250.5c0.1-5.7-2.4-14.6-12.5-14.6
	c-9.1,0-13.1,8.4-13.8,14.6H398.7z"/>
<path d="M446,280.1l-0.7-6.2H445c-3.6,4.8-9.2,7.5-15.2,7.4c-10,0-15.1-7.1-15.1-14.2c0-12,10.6-18.5,29.8-18.4v-1
	c0-4.1-1.1-11.5-11.3-11.5c-4.6,0-9,1.3-12.9,3.7l-2-5.9c4.9-3,10.5-4.5,16.3-4.4c15.2,0,18.9,10.4,18.9,20.3v18.5
	c-0.1,4,0.2,8,0.8,11.9L446,280.1z M444.7,254.8c-9.8-0.2-21,1.5-21,11.2c0,5.8,3.9,8.6,8.5,8.6c5.4,0.2,10.2-3.2,12-8.3
	c0.3-0.9,0.5-1.9,0.5-2.9L444.7,254.8z"/>
<rect class="st0" width="500" height="500"/>
</svg>
